<?xml version="1.0" encoding="UTF-8"?>
<svg version="1.1" viewBox="0 0 2048 2048" width="512" height="512" xmlns="http://www.w3.org/2000/svg">
<path transform="translate(347)" d="m0 0h1354l47 8 28 7 27 9 26 11 22 11 20 12 16 11 11 8 16 13 8 7 12 11 13 13 7 8 11 13 12 16 12 18 9 15 10 18 11 24 10 27 7 24 6 27 6 39v1347l-6 39-7 32-9 29-9 22-12 25-11 20-18 27-10 13-9 11-9 10-2 3h-2l-2 4-12 12-8 7-10 9-17 13-17 12-25 15-23 12-26 11-33 11-30 7-35 6-7 1h-1348l-26-4-28-5-24-6-27-9-24-10-16-8-19-10-22-14-12-9-14-11-14-12-16-15-7-7-7-8-11-13-15-20-10-15-8-13-12-22-11-24-9-24-9-32-6-30-4-28v-1353l8-47 8-30 8-24 11-26 10-20 13-22 13-19 9-12 11-13 9-11 24-24 11-9 12-10 19-14 19-12 18-10 22-11 28-11 26-8 30-7 31-5z" fill="#1E1D1D"/>
<path transform="translate(1021,353)" d="m0 0h20l15 4 12 5 11 7 14 14 7 11 6 14 2 8 1 9v354l79-1h21v-160l2-14 5-15 7-13 9-10 10-9 14-8 11-4 11-2h18l15 3 12 5 11 7 12 11 7 10 6 12 4 13 1 6 1 55-1 336h100l1-207 3-16 6-15 9-14 8-9 10-7 16-8 12-4 5-1h21l15 4 17 8 10 8 9 9 8 13 5 12 4 18v467l-4 18-4 9-7 12-10 11-11 8-14 7-11 4-15 2-16-1-13-4-16-8-11-8-8-8-9-14-6-17-3-17v-206l-100 1-1 391-4 18-7 14-8 10-9 9-12 8-12 5-18 4h-15l-17-4-11-5-10-6-12-11-8-11-7-15-4-18-1-30-1-296v-210l1-77-71 1h-28l-1 794-2 18-4 13-6 11-8 10-8 8-11 7-13 6-16 4h-20l-15-3-15-7-13-9-7-7-7-10-7-14-4-14-1-9-1-295h-106l-1 115-3 12-8 16-7 9-11 11-13 8-14 5-14 3h-14l-14-3-14-5-11-7-12-11-9-13-6-13-4-17-1-32v-457l-80 1h-25v308l-3 15-6 15-7 11-9 10-12 9-15 7-9 3-5 1h-26l-14-4-16-8-10-8-8-8-9-14-5-13-2-10-1-18v-453l2-15 6-16 7-10 9-10 9-8 15-8 15-5 5-1h20l16 4 16 8 9 6 11 11 8 13 5 12 3 10 1 7v112h105v-228l1-64 3-15 8-16 8-11 9-9 14-9 12-5 14-3h18l15 3 12 5 11 7 10 9 8 10 8 16 4 14 1 23v232l-1 418h106l1-1v-825l1-33 5-18 8-15 7-9 8-8 14-9 12-5z" fill="#63EBD0"/>
<path transform="translate(758,543)" d="m0 0h18l15 3 12 5 11 7 10 9 8 10 8 16 4 14 1 23v232l-1 418h106l2-2 1-226 6 2 29 16 24 13 47 26 24 13 17 10 7 5 1-252h1v734l-2 18-4 13-6 11-8 10-8 8-11 7-13 6-16 4h-20l-15-3-15-7-13-9-7-7-7-10-7-14-4-14-1-9-1-295h-106l-1 115-3 12-8 16-7 9-11 11-13 8-14 5-14 3h-14l-14-3-14-5-11-7-12-11-9-13-6-13-4-17-1-32v-457l-80 1h-25v308l-3 15-6 15-7 11-9 10-12 9-15 7-9 3-5 1h-26l-14-4-16-8-10-8-8-8-9-14-5-13-2-10-1-18v-453l2-15 6-16 7-10 9-10 9-8 15-8 15-5 5-1h20l16 4 16 8 9 6 11 11 8 13 5 12 3 10 1 7v112h105v-228l1-64 3-15 8-16 8-11 9-9 14-9 12-5z" fill="#4DBDA2"/>
<path transform="translate(758,543)" d="m0 0h18l15 3 12 5 11 7 10 9 8 10 8 16 4 14 1 23v232l-1 128-2 4v-5l-5-2-10-6-23-13-26-14-18-10-43-24-24-13-4-2v-230l1-64 3-15 8-16 8-11 9-9 14-9 12-5z" fill="#63EBD0"/>
<path transform="translate(1209,1193)" d="m0 0 1 2 6 2 56 31 24 13 23 13 26 14 18 11v-26h1v186l-4 18-7 14-8 10-9 9-12 8-12 5-18 4h-15l-17-4-11-5-10-6-12-11-8-11-7-15-4-18-1-30z" fill="#4DBDA2"/>
<path transform="translate(495,720)" d="m0 0h20l16 4 16 8 9 6 11 11 8 13 5 12 3 10 1 7v53l-2 2v-2l-5-2-13-8-22-12-23-13-17-9-21-12-27-15-14-8-4-1 1-5 8-11 11-11 13-8 14-6z" fill="#63EBD0"/>
</svg>
